# xmcd
#
# Track frame offsets:
#	150
#	20266
#	55776
#	70640
#	88394
#	109849
#	134336
#	153475
#	182129
#	200107
#
# Disc length: 2744 seconds
#
# Revision: 0
# Processed by: cddbd v1.5.2PL0 Copyright (c) Steve Scherf et al.
# Submitted via: EasyCDDAExtractor 12.0.0.1
#
DISCID=8b0ab60a
DTITLE=ΕΛΕΥΘΕΡΙΑ ΑΡΒΑΝΙΤΑΚΗ - ΧΙΛΙΕΣ ΒΡΑΔΙΕΣ  - ΘΕΜΑ
DYEAR=2009
DGENRE=GREEK
TTITLE0=ΑΔΕΙΑ ΜΟΥ ΑΓΚΑΛΙΑ
TTITLE1=ΜΕΝΩ ΕΚΤΟΣ
TTITLE2=ΖΩΗ ΚΛΕΜΜΕΝΗ
TTITLE3=ΘΑ ΣΠΑΣΩ ΚΟΥΠΕΣ
TTITLE4=ΤΖΙΒΑΕΡΙ
TTITLE5=ΤΑ ΚΟΡΜΙΑ ΚΑΙ ΤΑ ΜΑΧΑΙΡΙΑ
TTITLE6=ΤΟ ΠΑΡΑΠΟΝΟ
TTITLE7=ΠΑΡΑΠΟΝΟ/Η ΞΕΝΙΤΙΑ
TTITLE8=ΔΥΝΑΤΑ
TTITLE9=ΚΥΜΑ ΤΟ ΚΥΜΑ
EXTD=
EXTT0=
EXTT1=
EXTT2=
EXTT3=
EXTT4=
EXTT5=
EXTT6=
EXTT7=
EXTT8=
EXTT9=
PLAYORDER=
